<svg xmlns="http://www.w3.org/2000/svg" xmlns:xlink="http://www.w3.org/1999/xlink" width="500" zoomAndPan="magnify" viewBox="0 0 375 374.999991" height="500" preserveAspectRatio="xMidYMid meet" version="1.0"><defs><filter x="0%" y="0%" width="100%" height="100%" id="c43256eacc"><feColorMatrix values="0 0 0 0 1 0 0 0 0 1 0 0 0 0 1 0 0 0 1 0" color-interpolation-filters="sRGB"/></filter><mask id="f9914eba9f"><g filter="url(#c43256eacc)"><rect x="-37.5" width="450" fill="#000000" y="-37.499999" height="449.999989" fill-opacity="0.26"/></g></mask><clipPath id="695d1cb9bd"><path d="M 0.238281 46 L 325 46 L 325 370.5 L 0.238281 370.5 Z M 0.238281 46 " clip-rule="nonzero"/></clipPath><mask id="e75f8d86ca"><g filter="url(#c43256eacc)"><rect x="-82.5" width="540" fill="#000000" y="-82.499998" height="539.999987" fill-opacity="0.1"/></g></mask><clipPath id="7935bef693"><path d="M 0.238281 0.160156 L 68.878906 0.160156 L 68.878906 68.800781 L 0.238281 68.800781 Z M 0.238281 0.160156 " clip-rule="nonzero"/></clipPath><clipPath id="311a3eabc5"><rect x="0" width="69" y="0" height="69"/></clipPath><clipPath id="6dc92a16b1"><path d="M 0.238281 45 L 229 45 L 229 244 L 0.238281 244 Z M 0.238281 45 " clip-rule="nonzero"/></clipPath><mask id="da0bdbaa5e"><g filter="url(#c43256eacc)"><rect x="-82.5" width="540" fill="#000000" y="-82.499998" height="539.999987" fill-opacity="0.1"/></g></mask><clipPath id="36f57b4fac"><path d="M 0.238281 1 L 228 1 L 228 198.839844 L 0.238281 198.839844 Z M 0.238281 1 " clip-rule="nonzero"/></clipPath><clipPath id="8794d3ae41"><rect x="0" width="229" y="0" height="199"/></clipPath><mask id="77c3d61b94"><g filter="url(#c43256eacc)"><rect x="-82.5" width="540" fill="#000000" y="-82.499998" height="539.999987" fill-opacity="0.1"/></g></mask><clipPath id="f0606bae38"><path d="M 0.160156 0 L 114 0 L 114 96 L 0.160156 96 Z M 0.160156 0 " clip-rule="nonzero"/></clipPath><clipPath id="61c88090d7"><rect x="0" width="115" y="0" height="97"/></clipPath><clipPath id="9d824d91f7"><rect x="0" width="375" y="0" height="372"/></clipPath></defs><g mask="url(#f9914eba9f)"><g><g clip-path="url(#9d824d91f7)"><g clip-path="url(#695d1cb9bd)"><path fill="#c1a1ff" d="M 162.445312 46.054688 C 190.242188 121.175781 249.472656 180.394531 324.59375 208.199219 C 249.472656 235.996094 190.25 295.226562 162.445312 370.347656 C 134.640625 295.226562 75.417969 235.996094 0.296875 208.199219 C 75.417969 180.40625 134.640625 121.175781 162.445312 46.054688 Z M 162.445312 46.054688 " fill-opacity="1" fill-rule="nonzero"/></g><path fill="#c1a1ff" d="M 296.582031 0 C 301.324219 41 333.667969 73.351562 374.667969 78.085938 C 333.667969 82.828125 301.316406 115.167969 296.582031 156.167969 C 291.839844 115.167969 259.5 82.816406 218.5 78.085938 C 259.5 73.351562 291.839844 41 296.582031 0 Z M 296.582031 0 " fill-opacity="1" fill-rule="nonzero"/><path fill="#c1a1ff" d="M 268.527344 272.261719 C 270.59375 290.128906 284.6875 304.222656 302.554688 306.285156 C 284.6875 308.351562 270.59375 322.445312 268.527344 340.308594 C 266.464844 322.445312 252.371094 308.351562 234.503906 306.285156 C 252.371094 304.222656 266.464844 290.128906 268.527344 272.261719 Z M 268.527344 272.261719 " fill-opacity="1" fill-rule="nonzero"/><g mask="url(#e75f8d86ca)"><g transform="matrix(1, 0, 0, 1, 234, 272)"><g clip-path="url(#311a3eabc5)"><g clip-path="url(#7935bef693)"><path fill="#c1a1ff" d="M 34.527344 0.261719 C 36.59375 18.128906 50.6875 32.222656 68.554688 34.285156 C 50.6875 36.351562 36.59375 50.445312 34.527344 68.308594 C 32.464844 50.445312 18.371094 36.351562 0.503906 34.285156 C 18.371094 32.222656 32.464844 18.128906 34.527344 0.261719 Z M 34.527344 0.261719 " fill-opacity="1" fill-rule="nonzero"/></g></g></g></g><g clip-path="url(#6dc92a16b1)"><g mask="url(#da0bdbaa5e)"><g transform="matrix(1, 0, 0, 1, 0, 45)"><g clip-path="url(#8794d3ae41)"><g clip-path="url(#36f57b4fac)"><path fill="#c1a1ff" d="M 227.886719 101.941406 C 199.210938 73.878906 176.691406 39.570312 162.445312 1.0625 C 134.640625 76.175781 75.417969 135.40625 0.296875 163.199219 C 23.875 171.929688 45.886719 183.753906 65.855469 198.183594 C 102.875 148.859375 160.683594 113.347656 227.886719 101.941406 Z M 227.886719 101.941406 " fill-opacity="1" fill-rule="nonzero"/></g></g></g></g></g><g mask="url(#77c3d61b94)"><g transform="matrix(1, 0, 0, 1, 218, 0)"><g clip-path="url(#61c88090d7)"><g clip-path="url(#f0606bae38)"><path fill="#c1a1ff" d="M 113.566406 60.894531 C 94.546875 46.621094 81.464844 24.914062 78.582031 0 C 73.839844 41 41.5 73.351562 0.5 78.085938 C 16.746094 79.960938 31.621094 86.191406 43.972656 95.558594 C 64.203125 79.515625 87.820312 67.539062 113.566406 60.894531 Z M 113.566406 60.894531 " fill-opacity="1" fill-rule="nonzero"/></g></g></g></g><path fill="#c1a1ff" d="M 172.089844 165.304688 L 144.320312 240.230469 L 162.523438 240.230469 C 162.523438 240.230469 167.117188 227.855469 167.117188 227.855469 L 195.585938 227.855469 C 195.585938 227.855469 200.257812 240.230469 200.257812 240.230469 L 218.5 240.230469 C 218.5 240.230469 190.695312 165.304688 190.695312 165.304688 Z M 172.667969 212.765625 L 181.46875 189.515625 L 190.007812 212.765625 Z M 172.667969 212.765625 " fill-opacity="1" fill-rule="nonzero"/><path fill="#c1a1ff" d="M 115.554688 165.304688 L 133.421875 165.304688 L 133.421875 240.230469 L 115.554688 240.230469 Z M 115.554688 165.304688 " fill-opacity="1" fill-rule="nonzero"/></g></g></g></svg>