<svg xmlns="http://www.w3.org/2000/svg" xmlns:xlink="http://www.w3.org/1999/xlink" width="500" zoomAndPan="magnify" viewBox="0 0 375 374.999991" height="500" preserveAspectRatio="xMidYMid meet" version="1.0"><defs><clipPath id="4e8390d83a"><path d="M 9 89 L 366 89 L 366 286.71875 L 9 286.71875 Z M 9 89 " clip-rule="nonzero"/></clipPath></defs><g clip-path="url(#4e8390d83a)"><path fill="#240d52" d="M 279.148438 137.160156 C 284.210938 134.800781 289.5 133.183594 295.015625 132.316406 C 300.535156 131.449219 306.0625 131.359375 311.605469 132.050781 C 326.96875 134.019531 339.558594 140.59375 348.722656 149.828125 C 351.160156 152.285156 353.363281 154.933594 355.332031 157.78125 C 357.296875 160.628906 359.003906 163.625 360.441406 166.773438 C 361.878906 169.917969 363.03125 173.167969 363.894531 176.519531 C 364.757812 179.871094 365.320312 183.269531 365.578125 186.722656 C 366.519531 199.125 363.453125 212.027344 356.863281 223.800781 C 353.476562 229.75 349.410156 235.199219 344.671875 240.140625 C 339.929688 245.082031 334.65625 249.367188 328.851562 252.996094 C 309.367188 265.363281 284.628906 268.882812 261.605469 272.148438 C 241.921875 274.945312 223.589844 277.550781 213.0625 285.273438 C 212.539062 285.65625 211.972656 285.960938 211.367188 286.183594 C 210.757812 286.410156 210.132812 286.546875 209.488281 286.597656 C 208.839844 286.644531 208.199219 286.605469 207.566406 286.476562 C 206.929688 286.347656 206.328125 286.132812 205.75 285.832031 C 205.175781 285.535156 204.652344 285.164062 204.183594 284.71875 C 203.710938 284.273438 203.3125 283.769531 202.980469 283.214844 C 202.652344 282.65625 202.402344 282.0625 202.238281 281.4375 C 202.074219 280.8125 202 280.175781 202.011719 279.527344 C 201.59375 266.515625 192.550781 250.511719 182.84375 233.332031 C 171.40625 213.09375 159.117188 191.347656 157.046875 168.339844 C 156.386719 161.53125 156.570312 154.746094 157.597656 147.980469 C 158.621094 141.21875 160.457031 134.683594 163.105469 128.375 C 165.039062 123.847656 167.40625 119.566406 170.214844 115.523438 C 171.945312 116.296875 173.605469 117.207031 175.191406 118.246094 C 177.511719 119.773438 179.632812 121.539062 181.5625 123.535156 C 179.320312 126.769531 177.429688 130.195312 175.882812 133.8125 C 173.679688 139.074219 172.15625 144.523438 171.304688 150.164062 C 170.457031 155.800781 170.308594 161.460938 170.859375 167.136719 C 172.664062 187.152344 184.191406 207.546875 194.917969 226.535156 C 203.273438 241.316406 211.175781 255.308594 214.394531 268.621094 C 226.914062 263.046875 242.832031 260.78125 259.65625 258.390625 C 281.234375 255.328125 304.421875 252.03125 321.40625 241.253906 C 326.238281 238.238281 330.628906 234.679688 334.578125 230.574219 C 338.527344 226.472656 341.917969 221.949219 344.746094 217.003906 C 350 207.613281 352.453125 197.4375 351.71875 187.753906 C 351.519531 185.121094 351.09375 182.53125 350.4375 179.976562 C 349.78125 177.417969 348.90625 174.941406 347.8125 172.542969 C 346.714844 170.140625 345.417969 167.855469 343.921875 165.683594 C 342.421875 163.515625 340.746094 161.492188 338.886719 159.617188 C 331.789062 152.460938 321.953125 147.359375 309.875 145.808594 C 304.101562 145.085938 298.398438 145.464844 292.765625 146.941406 C 287.273438 148.339844 282.261719 150.742188 277.730469 154.148438 C 277.214844 154.539062 276.65625 154.851562 276.054688 155.085938 C 275.449219 155.320312 274.828125 155.46875 274.183594 155.527344 C 273.542969 155.589844 272.902344 155.558594 272.265625 155.441406 C 271.632812 155.324219 271.023438 155.121094 270.445312 154.835938 C 269.867188 154.550781 269.335938 154.1875 268.859375 153.753906 C 268.378906 153.320312 267.972656 152.828125 267.628906 152.277344 C 267.289062 151.730469 267.027344 151.144531 266.851562 150.523438 C 266.671875 149.902344 266.582031 149.269531 266.582031 148.625 C 266.511719 142.957031 265.355469 137.523438 263.113281 132.316406 C 260.855469 126.964844 257.679688 122.226562 253.59375 118.097656 C 244.988281 109.445312 234.953125 104.757812 224.96875 103.492188 C 219.292969 102.773438 213.6875 103.132812 208.152344 104.574219 C 204.765625 100.550781 200.976562 96.949219 196.789062 93.765625 C 201.515625 91.800781 206.414062 90.476562 211.484375 89.792969 C 216.558594 89.109375 221.632812 89.089844 226.710938 89.734375 C 239.636719 91.367188 252.523438 97.339844 263.433594 108.308594 C 268.78125 113.714844 272.9375 119.921875 275.894531 126.929688 C 277.296875 130.238281 278.382812 133.648438 279.160156 137.15625 Z M 82.324219 146.941406 C 87.820312 148.339844 92.832031 150.742188 97.363281 154.152344 C 97.878906 154.539062 98.4375 154.851562 99.039062 155.085938 C 99.640625 155.320312 100.261719 155.46875 100.90625 155.53125 C 101.550781 155.589844 102.1875 155.5625 102.824219 155.445312 C 103.460938 155.328125 104.066406 155.125 104.644531 154.839844 C 105.222656 154.554688 105.753906 154.191406 106.230469 153.757812 C 106.710938 153.324219 107.121094 152.835938 107.460938 152.285156 C 107.800781 151.738281 108.0625 151.152344 108.242188 150.53125 C 108.417969 149.910156 108.511719 149.277344 108.511719 148.632812 C 108.582031 142.964844 109.738281 137.523438 111.980469 132.316406 C 114.238281 126.964844 117.410156 122.226562 121.5 118.097656 C 130.109375 109.453125 140.140625 104.757812 150.125 103.492188 C 152.742188 103.164062 155.371094 103.066406 158.007812 103.199219 C 160.644531 103.335938 163.25 103.699219 165.820312 104.296875 C 168.390625 104.890625 170.890625 105.710938 173.320312 106.75 C 175.746094 107.785156 178.0625 109.03125 180.269531 110.480469 C 188.398438 115.800781 194.972656 123.9375 199.203125 133.8125 C 201.40625 139.070312 202.929688 144.523438 203.78125 150.160156 C 204.628906 155.800781 204.777344 161.460938 204.222656 167.136719 C 203.136719 179.171875 198.539062 191.339844 192.714844 203.265625 C 195.335938 208.363281 198.101562 213.3125 200.742188 217.988281 C 209.144531 202.21875 216.476562 185.632812 218.035156 168.335938 C 218.695312 161.527344 218.511719 154.742188 217.488281 147.980469 C 216.460938 141.214844 214.625 134.679688 211.976562 128.375 C 206.65625 115.957031 198.292969 105.652344 187.886719 98.839844 C 184.992188 96.945312 181.953125 95.320312 178.773438 93.964844 C 175.589844 92.609375 172.316406 91.542969 168.945312 90.765625 C 165.574219 89.988281 162.164062 89.511719 158.707031 89.339844 C 155.253906 89.167969 151.8125 89.296875 148.378906 89.734375 C 135.457031 91.367188 122.566406 97.339844 111.65625 108.308594 C 106.308594 113.714844 102.15625 119.921875 99.199219 126.929688 C 97.796875 130.238281 96.707031 133.648438 95.929688 137.15625 C 90.871094 134.796875 85.582031 133.183594 80.0625 132.316406 C 74.546875 131.445312 69.019531 131.359375 63.476562 132.050781 C 48.113281 134.019531 35.523438 140.59375 26.359375 149.824219 C 23.921875 152.28125 21.71875 154.933594 19.75 157.777344 C 17.78125 160.625 16.078125 163.621094 14.640625 166.769531 C 13.203125 169.917969 12.050781 173.164062 11.1875 176.515625 C 10.324219 179.867188 9.761719 183.269531 9.5 186.71875 C 8.558594 199.125 11.621094 212.023438 18.21875 223.796875 C 21.605469 229.75 25.667969 235.195312 30.410156 240.136719 C 35.148438 245.078125 40.421875 249.363281 46.230469 252.996094 C 65.714844 265.359375 90.453125 268.878906 113.46875 272.144531 C 133.160156 274.941406 151.492188 277.550781 162.019531 285.269531 C 162.539062 285.652344 163.105469 285.957031 163.710938 286.183594 C 164.320312 286.40625 164.945312 286.542969 165.59375 286.59375 C 166.238281 286.644531 166.878906 286.605469 167.515625 286.472656 C 168.148438 286.34375 168.753906 286.128906 169.328125 285.832031 C 169.902344 285.53125 170.425781 285.160156 170.894531 284.714844 C 171.367188 284.269531 171.765625 283.769531 172.097656 283.210938 C 172.429688 282.652344 172.675781 282.0625 172.839844 281.433594 C 173.003906 280.808594 173.082031 280.171875 173.066406 279.523438 C 173.332031 271.226562 177.113281 261.703125 182.335938 251.433594 C 179.59375 246.292969 176.824219 241.554688 174.757812 237.890625 L 174.28125 237.046875 C 168.285156 247.996094 163.132812 258.5 160.691406 268.621094 C 148.167969 263.042969 132.253906 260.777344 115.425781 258.386719 C 93.851562 255.324219 70.660156 252.027344 53.679688 241.25 C 48.847656 238.234375 44.453125 234.675781 40.503906 230.574219 C 36.554688 226.46875 33.167969 221.945312 30.339844 217 C 25.082031 207.609375 22.632812 197.433594 23.367188 187.75 C 23.5625 185.121094 23.992188 182.527344 24.648438 179.972656 C 25.304688 177.417969 26.179688 174.9375 27.273438 172.539062 C 28.367188 170.136719 29.664062 167.851562 31.164062 165.679688 C 32.664062 163.511719 34.339844 161.488281 36.195312 159.613281 C 43.296875 152.457031 53.125 147.355469 65.210938 145.804688 C 70.988281 145.082031 76.695312 145.460938 82.324219 146.941406 Z M 82.324219 146.941406 " fill-opacity="1" fill-rule="evenodd"/></g></svg>