<svg xmlns="http://www.w3.org/2000/svg" xmlns:xlink="http://www.w3.org/1999/xlink" width="500" zoomAndPan="magnify" viewBox="0 0 375 374.999991" height="500" preserveAspectRatio="xMidYMid meet" version="1.0"><defs><clipPath id="2e867913b1"><path d="M 49.476562 9.453125 L 325.476562 9.453125 L 325.476562 365.703125 L 49.476562 365.703125 Z M 49.476562 9.453125 " clip-rule="nonzero"/></clipPath></defs><g clip-path="url(#2e867913b1)"><path fill="#240d52" d="M 325.519531 338.644531 C 325.519531 243.621094 263.675781 166.640625 187.5 166.640625 C 111.320312 166.640625 49.476562 243.621094 49.476562 338.644531 C 49.476562 353.460938 111.320312 365.539062 187.5 365.539062 C 263.675781 365.539062 325.519531 353.460938 325.519531 338.644531 Z M 187.5 9.453125 C 229.050781 9.453125 262.710938 43.113281 262.710938 84.664062 C 262.710938 126.214844 229.050781 159.875 187.5 159.875 C 145.949219 159.875 112.289062 126.214844 112.289062 84.664062 C 112.289062 43.113281 145.949219 9.453125 187.5 9.453125 Z M 187.5 9.453125 " fill-opacity="1" fill-rule="evenodd"/></g></svg>