<svg xmlns="http://www.w3.org/2000/svg" xmlns:xlink="http://www.w3.org/1999/xlink" width="500" zoomAndPan="magnify" viewBox="0 0 375 374.999991" height="500" preserveAspectRatio="xMidYMid meet" version="1.0"><defs><clipPath id="d8989a4338"><path d="M 10.152344 10.152344 L 364.902344 10.152344 L 364.902344 364 L 10.152344 364 Z M 10.152344 10.152344 " clip-rule="nonzero"/></clipPath><clipPath id="f078a3350a"><path d="M 108 75 L 270 75 L 270 364.902344 L 108 364.902344 Z M 108 75 " clip-rule="nonzero"/></clipPath></defs><g clip-path="url(#d8989a4338)"><path fill="#5e17eb" d="M 364.894531 187.53125 C 364.894531 89.5625 285.484375 10.152344 187.53125 10.152344 C 89.578125 10.152344 10.152344 89.5625 10.152344 187.53125 C 10.152344 270.710938 67.417969 340.519531 144.675781 359.6875 L 144.675781 241.738281 L 108.09375 241.738281 L 108.09375 187.53125 L 144.675781 187.53125 L 144.675781 164.175781 C 144.675781 103.808594 171.992188 75.824219 231.261719 75.824219 C 242.503906 75.824219 261.894531 78.019531 269.820312 80.234375 L 269.820312 129.359375 C 265.632812 128.914062 258.359375 128.691406 249.332031 128.691406 C 220.246094 128.691406 209.007812 139.707031 209.007812 168.347656 L 209.007812 187.515625 L 266.9375 187.515625 L 256.988281 241.722656 L 209.007812 241.722656 L 209.007812 363.585938 C 296.835938 352.984375 364.894531 278.195312 364.894531 187.515625 Z M 364.894531 187.53125 " fill-opacity="1" fill-rule="nonzero"/></g><g clip-path="url(#f078a3350a)"><path fill="#ffffff" d="M 257.003906 241.722656 L 266.957031 187.515625 L 209.023438 187.515625 L 209.023438 168.347656 C 209.023438 139.707031 220.261719 128.691406 249.347656 128.691406 C 258.375 128.691406 265.648438 128.914062 269.835938 129.359375 L 269.835938 80.234375 C 261.910156 78.035156 242.519531 75.824219 231.277344 75.824219 C 172.011719 75.824219 144.691406 103.808594 144.691406 164.175781 L 144.691406 187.53125 L 108.109375 187.53125 L 108.109375 241.738281 L 144.691406 241.738281 L 144.691406 359.6875 C 158.414062 363.09375 172.757812 364.910156 187.546875 364.910156 C 194.824219 364.910156 201.988281 364.464844 209.039062 363.605469 L 209.039062 241.738281 L 257.019531 241.738281 Z M 257.003906 241.722656 " fill-opacity="1" fill-rule="nonzero"/></g></svg>