<svg xmlns="http://www.w3.org/2000/svg" xmlns:xlink="http://www.w3.org/1999/xlink" width="500" zoomAndPan="magnify" viewBox="0 0 375 374.999991" height="500" preserveAspectRatio="xMidYMid meet" version="1.0"><defs><clipPath id="70ebc292ab"><path d="M 213 13 L 362.398438 13 L 362.398438 162 L 213 162 Z M 213 13 " clip-rule="nonzero"/></clipPath><clipPath id="39f0908f58"><path d="M 192 133 L 362.398438 133 L 362.398438 237 L 192 237 Z M 192 133 " clip-rule="nonzero"/></clipPath></defs><path fill="#240d52" d="M 144.253906 182.941406 C 143.203125 182.941406 142.140625 182.625 141.21875 181.964844 C 138.871094 180.289062 138.332031 177.023438 140.007812 174.679688 C 149.796875 160.988281 152.332031 151.976562 154.371094 144.734375 C 155.855469 139.464844 157.257812 134.488281 160.886719 129.414062 C 167.289062 120.457031 176.585938 118.414062 184.785156 116.617188 C 192.972656 114.816406 198.160156 113.453125 201.472656 108.25 C 208.101562 97.835938 201.84375 86.492188 194.601562 73.351562 C 189.117188 63.40625 183.445312 53.121094 183.445312 42.308594 C 183.445312 26.226562 196.527344 13.144531 212.609375 13.144531 C 228.691406 13.144531 241.773438 26.226562 241.773438 42.308594 C 241.773438 45.195312 239.433594 47.53125 236.546875 47.53125 C 233.660156 47.53125 231.324219 45.195312 231.324219 42.308594 C 231.324219 31.988281 222.925781 23.59375 212.609375 23.59375 C 202.289062 23.59375 193.894531 31.988281 193.894531 42.308594 C 193.894531 50.429688 198.683594 59.113281 203.753906 68.308594 C 211.480469 82.328125 220.242188 98.214844 210.285156 113.859375 C 204.476562 122.992188 195.207031 125.023438 187.027344 126.820312 C 179.742188 128.417969 173.453125 129.800781 169.386719 135.488281 C 166.820312 139.078125 165.816406 142.636719 164.429688 147.566406 C 162.171875 155.589844 159.359375 165.574219 148.511719 180.753906 C 147.488281 182.179688 145.882812 182.941406 144.253906 182.941406 Z M 144.253906 182.941406 " fill-opacity="1" fill-rule="nonzero"/><g clip-path="url(#70ebc292ab)"><path fill="#240d52" d="M 219.101562 161.386719 C 217.765625 161.386719 216.429688 160.875 215.40625 159.855469 C 213.367188 157.816406 213.367188 154.507812 215.40625 152.46875 C 227.308594 140.566406 231.289062 132.09375 234.488281 125.285156 C 236.816406 120.332031 239.015625 115.652344 243.429688 111.238281 C 250.9375 103.730469 261.546875 101.257812 271.808594 98.863281 C 280.710938 96.789062 289.121094 94.828125 294.097656 89.851562 C 301.816406 82.132812 302.066406 70.3125 302.332031 57.800781 C 302.605469 44.6875 302.894531 31.128906 312.335938 21.6875 C 317.84375 16.179688 325.164062 13.144531 332.953125 13.144531 C 340.742188 13.144531 348.066406 16.179688 353.574219 21.6875 C 359.082031 27.195312 362.117188 34.519531 362.117188 42.308594 C 362.117188 50.097656 359.082031 57.421875 353.574219 62.929688 C 351.535156 64.96875 348.226562 64.96875 346.1875 62.929688 C 344.148438 60.890625 344.148438 57.582031 346.1875 55.542969 C 349.722656 52.007812 351.667969 47.308594 351.667969 42.308594 C 351.667969 37.3125 349.722656 32.609375 346.1875 29.078125 C 342.652344 25.539062 337.953125 23.59375 332.953125 23.59375 C 327.957031 23.59375 323.257812 25.539062 319.722656 29.074219 C 313.25 35.546875 313.019531 46.464844 312.773438 58.019531 C 312.492188 71.394531 312.171875 86.550781 301.484375 97.242188 C 294.398438 104.328125 284.117188 106.722656 274.179688 109.039062 C 264.941406 111.195312 256.214844 113.226562 250.816406 118.628906 C 247.695312 121.75 246.121094 125.097656 243.945312 129.730469 C 240.398438 137.273438 235.988281 146.664062 222.796875 159.855469 C 221.777344 160.875 220.4375 161.386719 219.101562 161.386719 Z M 219.101562 161.386719 " fill-opacity="1" fill-rule="nonzero"/></g><g clip-path="url(#39f0908f58)"><path fill="#240d52" d="M 197.550781 236.230469 C 195.921875 236.230469 194.316406 235.46875 193.296875 234.042969 C 191.617188 231.695312 192.160156 228.433594 194.507812 226.753906 C 209.6875 215.90625 219.671875 213.09375 227.695312 210.835938 C 232.625 209.445312 236.183594 208.445312 239.773438 205.878906 C 245.464844 201.8125 246.84375 195.519531 248.441406 188.238281 C 250.238281 180.058594 252.273438 170.785156 261.402344 164.976562 C 277.046875 155.019531 292.933594 163.78125 306.953125 171.511719 C 316.148438 176.578125 324.832031 181.367188 332.953125 181.367188 C 343.273438 181.367188 351.667969 172.972656 351.667969 162.652344 C 351.667969 152.335938 343.273438 143.941406 332.953125 143.941406 C 330.070312 143.941406 327.730469 141.601562 327.730469 138.714844 C 327.730469 135.828125 330.070312 133.492188 332.953125 133.492188 C 349.035156 133.492188 362.117188 146.574219 362.117188 162.652344 C 362.117188 178.734375 349.035156 191.816406 332.953125 191.816406 C 322.144531 191.816406 311.855469 186.144531 301.910156 180.660156 C 288.773438 173.417969 277.429688 167.164062 267.011719 173.789062 C 261.808594 177.101562 260.445312 182.289062 258.648438 190.476562 C 256.847656 198.679688 254.808594 207.976562 245.851562 214.378906 C 240.773438 218.007812 235.796875 219.410156 230.527344 220.890625 C 223.289062 222.929688 214.277344 225.46875 200.585938 235.253906 C 199.664062 235.914062 198.601562 236.230469 197.550781 236.230469 Z M 197.550781 236.230469 " fill-opacity="1" fill-rule="nonzero"/></g><path fill="#240d52" d="M 295.78125 270.949219 C 294.441406 270.949219 293.105469 270.4375 292.085938 269.417969 C 290.046875 267.375 290.046875 264.070312 292.085938 262.027344 L 299.375 254.738281 C 301.417969 252.699219 304.722656 252.699219 306.765625 254.742188 C 308.804688 256.78125 308.804688 260.089844 306.765625 262.128906 L 299.472656 269.417969 C 298.453125 270.4375 297.117188 270.949219 295.78125 270.949219 Z M 295.78125 270.949219 " fill-opacity="1" fill-rule="nonzero"/><path fill="#240d52" d="M 287.84375 212.746094 C 285.621094 212.746094 283.5625 211.316406 282.863281 209.082031 L 279.78125 199.246094 C 278.917969 196.492188 280.449219 193.558594 283.203125 192.699219 C 285.957031 191.835938 288.890625 193.367188 289.75 196.121094 L 292.832031 205.957031 C 293.695312 208.710938 292.164062 211.644531 289.410156 212.507812 C 288.890625 212.667969 288.363281 212.746094 287.84375 212.746094 Z M 287.84375 212.746094 " fill-opacity="1" fill-rule="nonzero"/><path fill="#240d52" d="M 175.035156 196.796875 C 173.75 196.796875 172.460938 196.324219 171.449219 195.367188 C 169.351562 193.386719 169.257812 190.082031 171.238281 187.984375 L 178.320312 180.488281 C 180.300781 178.390625 183.609375 178.296875 185.707031 180.28125 C 187.804688 182.261719 187.898438 185.566406 185.914062 187.664062 L 178.835938 195.160156 C 177.808594 196.246094 176.421875 196.796875 175.035156 196.796875 Z M 175.035156 196.796875 " fill-opacity="1" fill-rule="nonzero"/><path fill="#240d52" d="M 112.675781 160.945312 C 112.070312 160.945312 111.449219 160.835938 110.847656 160.609375 C 108.144531 159.597656 106.773438 156.589844 107.785156 153.886719 L 111.398438 144.230469 C 112.410156 141.53125 115.417969 140.15625 118.121094 141.167969 C 120.824219 142.179688 122.195312 145.191406 121.183594 147.894531 L 117.570312 157.546875 C 116.785156 159.648438 114.792969 160.945312 112.675781 160.945312 Z M 112.675781 160.945312 " fill-opacity="1" fill-rule="nonzero"/><path fill="#240d52" d="M 292.136719 146.554688 C 290.800781 146.554688 289.460938 146.046875 288.441406 145.027344 C 286.402344 142.984375 286.402344 139.679688 288.441406 137.636719 L 295.730469 130.347656 C 297.773438 128.308594 301.078125 128.308594 303.121094 130.347656 C 305.160156 132.386719 305.160156 135.695312 303.121094 137.734375 L 295.828125 145.027344 C 294.808594 146.046875 293.472656 146.554688 292.136719 146.554688 Z M 292.136719 146.554688 " fill-opacity="1" fill-rule="nonzero"/><path fill="#240d52" d="M 344.609375 107.257812 L 334.300781 107.257812 C 331.414062 107.257812 329.074219 104.921875 329.074219 102.035156 C 329.074219 99.148438 331.414062 96.808594 334.300781 96.808594 L 344.609375 96.808594 C 347.492188 96.808594 349.832031 99.148438 349.832031 102.035156 C 349.832031 104.921875 347.492188 107.257812 344.609375 107.257812 Z M 344.609375 107.257812 " fill-opacity="1" fill-rule="nonzero"/><path fill="#240d52" d="M 234.535156 97.824219 C 233.199219 97.824219 231.863281 97.316406 230.84375 96.296875 L 223.550781 89.007812 C 221.511719 86.964844 221.511719 83.660156 223.550781 81.617188 C 225.59375 79.578125 228.902344 79.578125 230.941406 81.617188 L 238.230469 88.90625 C 240.269531 90.949219 240.269531 94.257812 238.230469 96.296875 C 237.210938 97.316406 235.871094 97.824219 234.535156 97.824219 Z M 234.535156 97.824219 " fill-opacity="1" fill-rule="nonzero"/><path fill="#240d52" d="M 273.574219 50.65625 C 272.238281 50.65625 270.902344 50.148438 269.878906 49.128906 C 267.839844 47.085938 267.839844 43.777344 269.878906 41.738281 L 277.171875 34.449219 C 279.210938 32.40625 282.519531 32.410156 284.558594 34.449219 C 286.597656 36.488281 286.597656 39.796875 284.558594 41.835938 L 277.269531 49.125 C 276.25 50.148438 274.910156 50.65625 273.574219 50.65625 Z M 273.574219 50.65625 " fill-opacity="1" fill-rule="nonzero"/><path fill="#240d52" d="M 158.730469 50.65625 C 157.394531 50.65625 156.054688 50.148438 155.035156 49.125 L 147.746094 41.835938 C 145.707031 39.796875 145.707031 36.488281 147.746094 34.449219 C 149.785156 32.410156 153.09375 32.40625 155.132812 34.449219 L 162.421875 41.738281 C 164.464844 43.78125 164.464844 47.085938 162.421875 49.128906 C 161.402344 50.148438 160.066406 50.65625 158.730469 50.65625 Z M 158.730469 50.65625 " fill-opacity="1" fill-rule="nonzero"/><path fill="#240d52" d="M 107.195312 30.882812 C 105.859375 30.882812 104.519531 30.375 103.5 29.355469 C 101.460938 27.3125 101.460938 24.007812 103.5 21.964844 L 110.789062 14.675781 C 112.832031 12.636719 116.136719 12.636719 118.179688 14.675781 C 120.21875 16.71875 120.21875 20.023438 118.179688 22.066406 L 110.886719 29.355469 C 109.867188 30.375 108.53125 30.882812 107.195312 30.882812 Z M 107.195312 30.882812 " fill-opacity="1" fill-rule="nonzero"/><path fill="#240d52" d="M 197.617188 283.707031 C 193.96875 267.144531 177.597656 241.042969 155.910156 219.355469 C 154.179688 217.625 152.421875 215.929688 150.644531 214.269531 L 124.464844 193.472656 C 104.71875 180.292969 86.488281 173.667969 78.839844 178.410156 L 78.84375 178.410156 L 75.089844 196.539062 L 65.910156 209.785156 L 41.496094 278.226562 L 38.644531 298.769531 L 29.289062 312.449219 L 16.488281 348.328125 L 39.878906 354.15625 Z M 197.617188 283.707031 " fill-opacity="1" fill-rule="nonzero"/><path fill="#240d52" d="M 197.617188 283.707031 C 199.414062 291.859375 198.132812 297.699219 192.886719 299.570312 C 192.132812 299.839844 174.007812 306.304688 174.007812 306.304688 L 163.730469 306.800781 L 154.847656 313.140625 L 116.523438 326.816406 L 106.675781 325.34375 L 97.363281 333.652344 L 59.039062 347.324219 L 49.457031 347.714844 L 39.878906 354.160156 L 21.074219 360.867188 C 16.921875 362.347656 12.914062 358.34375 14.398438 354.191406 L 16.488281 348.328125 Z M 197.617188 283.707031 " fill-opacity="1" fill-rule="nonzero"/><path fill="#240d52" d="M 41.496094 278.226562 L 55.738281 334.324219 L 47.421875 341.160156 L 36.578125 341.160156 L 29.289062 312.449219 Z M 150.640625 214.273438 C 142.136719 206.34375 133.152344 199.273438 124.460938 193.472656 L 151.546875 300.144531 L 162.390625 300.144531 L 170.707031 293.304688 Z M 78.84375 178.410156 C 77.390625 179.3125 76.316406 180.621094 75.691406 182.375 C 75.359375 183.308594 65.914062 209.789062 65.914062 209.789062 L 94.0625 320.652344 L 104.90625 319.519531 L 113.222656 313.816406 Z M 78.84375 178.410156 " fill-opacity="1" fill-rule="nonzero"/><path fill="#240d52" d="M 36.578125 341.160156 L 39.878906 354.15625 L 59.039062 347.320312 L 55.738281 334.324219 Z M 94.0625 320.652344 L 97.363281 333.648438 L 116.523438 326.8125 L 113.222656 313.816406 Z M 151.546875 300.144531 L 154.847656 313.140625 L 174.007812 306.304688 L 170.707031 293.304688 Z M 151.546875 300.144531 " fill-opacity="1" fill-rule="nonzero"/></svg>