<svg xmlns="http://www.w3.org/2000/svg" xmlns:xlink="http://www.w3.org/1999/xlink" width="500" zoomAndPan="magnify" viewBox="0 0 375 374.999991" height="500" preserveAspectRatio="xMidYMid meet" version="1.0"><defs><filter x="0%" y="0%" width="100%" height="100%" id="5203946c1f"><feColorMatrix values="0 0 0 0 1 0 0 0 0 1 0 0 0 0 1 0 0 0 1 0" color-interpolation-filters="sRGB"/></filter><g/><clipPath id="5177eaed55"><path d="M 0.238281 1 L 1 1 L 1 4 L 0.238281 4 Z M 0.238281 1 " clip-rule="nonzero"/></clipPath><clipPath id="41574e727f"><rect x="0" width="12" y="0" height="8"/></clipPath><clipPath id="c0774fbf3f"><path d="M 5.203125 52 L 321 52 L 321 367.484375 L 5.203125 367.484375 Z M 5.203125 52 " clip-rule="nonzero"/></clipPath><clipPath id="ecf29a1f0a"><path d="M 217 7.484375 L 369.703125 7.484375 L 369.703125 160 L 217 160 Z M 217 7.484375 " clip-rule="nonzero"/></clipPath><mask id="2a11519a9b"><g filter="url(#5203946c1f)"><rect x="-37.5" width="450" fill="#000000" y="-37.499999" height="449.999989" fill-opacity="0.1"/></g></mask><clipPath id="215e39db24"><path d="M 1 0.160156 L 67.761719 0.160156 L 67.761719 66.878906 L 1 66.878906 Z M 1 0.160156 " clip-rule="nonzero"/></clipPath><clipPath id="31debc0c79"><rect x="0" width="68" y="0" height="67"/></clipPath><clipPath id="56ddd4dd5e"><path d="M 5.203125 51 L 228 51 L 228 245 L 5.203125 245 Z M 5.203125 51 " clip-rule="nonzero"/></clipPath><mask id="4767fd3696"><g filter="url(#5203946c1f)"><rect x="-37.5" width="450" fill="#000000" y="-37.499999" height="449.999989" fill-opacity="0.1"/></g></mask><clipPath id="13d85398e8"><path d="M 0.28125 1 L 222 1 L 222 193 L 0.28125 193 Z M 0.28125 1 " clip-rule="nonzero"/></clipPath><clipPath id="354c03f6ed"><rect x="0" width="223" y="0" height="194"/></clipPath><clipPath id="df975f67bb"><path d="M 217 7.484375 L 329 7.484375 L 329 102 L 217 102 Z M 217 7.484375 " clip-rule="nonzero"/></clipPath><mask id="2474260e63"><g filter="url(#5203946c1f)"><rect x="-37.5" width="450" fill="#000000" y="-37.499999" height="449.999989" fill-opacity="0.1"/></g></mask><clipPath id="6cd964a6d5"><path d="M 0.199219 0.484375 L 111 0.484375 L 111 94 L 0.199219 94 Z M 0.199219 0.484375 " clip-rule="nonzero"/></clipPath><clipPath id="80247a80fb"><rect x="0" width="112" y="0" height="95"/></clipPath></defs><g transform="matrix(1, 0, 0, 1, 132, 134)"><g clip-path="url(#41574e727f)"><g clip-path="url(#5177eaed55)"><g fill="#5e17eb" fill-opacity="1"><g transform="translate(0.468503, 3.23364)"><g><path d="M 0.1875 0 L 0.15625 -1.546875 L 0.5 -1.5625 L 0.53125 -0.015625 Z M 0.1875 0 "/></g></g></g></g><g fill="#5e17eb" fill-opacity="1"><g transform="translate(1.188365, 3.215975)"><g><path d="M 1.265625 -0.03125 L 0.9375 -0.015625 L 0.921875 -0.703125 C 0.921875 -0.796875 0.90625 -0.863281 0.875 -0.90625 C 0.84375 -0.945312 0.796875 -0.96875 0.734375 -0.96875 C 0.640625 -0.96875 0.570312 -0.9375 0.53125 -0.875 C 0.5 -0.8125 0.484375 -0.710938 0.484375 -0.578125 L 0.5 -0.015625 L 0.171875 0 L 0.140625 -1.1875 L 0.390625 -1.203125 L 0.421875 -1.046875 L 0.453125 -1.046875 C 0.484375 -1.109375 0.53125 -1.148438 0.59375 -1.171875 C 0.65625 -1.203125 0.726562 -1.21875 0.8125 -1.21875 C 0.945312 -1.226562 1.050781 -1.195312 1.125 -1.125 C 1.195312 -1.050781 1.238281 -0.941406 1.25 -0.796875 Z M 1.265625 -0.03125 "/></g></g></g><g fill="#5e17eb" fill-opacity="1"><g transform="translate(2.617471, 3.180905)"><g><path d="M 0.984375 -0.390625 C 0.992188 -0.265625 0.957031 -0.164062 0.875 -0.09375 C 0.789062 -0.03125 0.660156 0 0.484375 0 C 0.398438 0 0.328125 0 0.265625 0 C 0.203125 -0.0078125 0.144531 -0.0234375 0.09375 -0.046875 L 0.09375 -0.3125 C 0.15625 -0.28125 0.222656 -0.257812 0.296875 -0.25 C 0.378906 -0.238281 0.445312 -0.234375 0.5 -0.234375 C 0.613281 -0.234375 0.671875 -0.265625 0.671875 -0.328125 C 0.660156 -0.359375 0.644531 -0.378906 0.625 -0.390625 C 0.613281 -0.410156 0.585938 -0.429688 0.546875 -0.453125 C 0.515625 -0.472656 0.46875 -0.492188 0.40625 -0.515625 C 0.3125 -0.546875 0.242188 -0.578125 0.203125 -0.609375 C 0.160156 -0.640625 0.128906 -0.675781 0.109375 -0.71875 C 0.0859375 -0.757812 0.078125 -0.8125 0.078125 -0.875 C 0.0664062 -0.976562 0.101562 -1.0625 0.1875 -1.125 C 0.269531 -1.1875 0.382812 -1.21875 0.53125 -1.21875 C 0.675781 -1.21875 0.816406 -1.191406 0.953125 -1.140625 L 0.875 -0.890625 C 0.8125 -0.921875 0.75 -0.941406 0.6875 -0.953125 C 0.632812 -0.972656 0.582031 -0.984375 0.53125 -0.984375 C 0.4375 -0.984375 0.394531 -0.957031 0.40625 -0.90625 C 0.40625 -0.875 0.421875 -0.847656 0.453125 -0.828125 C 0.484375 -0.804688 0.550781 -0.773438 0.65625 -0.734375 C 0.75 -0.703125 0.816406 -0.664062 0.859375 -0.625 C 0.898438 -0.59375 0.929688 -0.554688 0.953125 -0.515625 C 0.972656 -0.484375 0.984375 -0.441406 0.984375 -0.390625 Z M 0.984375 -0.390625 "/></g></g></g><g fill="#5e17eb" fill-opacity="1"><g transform="translate(3.698325, 3.154381)"><g><path d="M 0.625 -1 C 0.5625 -1 0.507812 -0.972656 0.46875 -0.921875 C 0.4375 -0.878906 0.421875 -0.820312 0.421875 -0.75 L 0.875 -0.75 C 0.875 -0.820312 0.847656 -0.878906 0.796875 -0.921875 C 0.753906 -0.972656 0.695312 -1 0.625 -1 Z M 0.703125 0 C 0.515625 0 0.363281 -0.046875 0.25 -0.140625 C 0.144531 -0.242188 0.0859375 -0.390625 0.078125 -0.578125 C 0.078125 -0.773438 0.125 -0.929688 0.21875 -1.046875 C 0.3125 -1.160156 0.445312 -1.21875 0.625 -1.21875 C 0.789062 -1.21875 0.921875 -1.171875 1.015625 -1.078125 C 1.117188 -0.992188 1.171875 -0.867188 1.171875 -0.703125 L 1.171875 -0.546875 L 0.40625 -0.53125 C 0.414062 -0.4375 0.445312 -0.363281 0.5 -0.3125 C 0.550781 -0.257812 0.625 -0.234375 0.71875 -0.234375 C 0.789062 -0.234375 0.859375 -0.242188 0.921875 -0.265625 C 0.984375 -0.285156 1.050781 -0.3125 1.125 -0.34375 L 1.125 -0.09375 C 1.0625 -0.0625 1 -0.0351562 0.9375 -0.015625 C 0.875 -0.00390625 0.796875 0 0.703125 0 Z M 0.703125 0 "/></g></g></g><g fill="#5e17eb" fill-opacity="1"><g transform="translate(4.983035, 3.122854)"><g><path d="M 0.796875 -1.21875 C 0.835938 -1.21875 0.875 -1.21875 0.90625 -1.21875 L 0.90625 -0.90625 C 0.875 -0.914062 0.84375 -0.921875 0.8125 -0.921875 C 0.707031 -0.921875 0.625 -0.894531 0.5625 -0.84375 C 0.507812 -0.789062 0.484375 -0.71875 0.484375 -0.625 L 0.5 -0.015625 L 0.171875 0 L 0.140625 -1.1875 L 0.390625 -1.203125 L 0.4375 -1 L 0.453125 -1 C 0.484375 -1.070312 0.53125 -1.125 0.59375 -1.15625 C 0.65625 -1.195312 0.722656 -1.21875 0.796875 -1.21875 Z M 0.796875 -1.21875 "/></g></g></g><g fill="#5e17eb" fill-opacity="1"><g transform="translate(5.970456, 3.098623)"><g><path d="M 0.125 -1.484375 C 0.113281 -1.597656 0.164062 -1.660156 0.28125 -1.671875 C 0.40625 -1.671875 0.472656 -1.613281 0.484375 -1.5 C 0.484375 -1.457031 0.46875 -1.421875 0.4375 -1.390625 C 0.40625 -1.359375 0.359375 -1.34375 0.296875 -1.34375 C 0.179688 -1.332031 0.125 -1.378906 0.125 -1.484375 Z M 0.5 -0.015625 L 0.171875 0 L 0.140625 -1.1875 L 0.46875 -1.203125 Z M 0.5 -0.015625 "/></g></g></g><g fill="#5e17eb" fill-opacity="1"><g transform="translate(6.634045, 3.082339)"><g><path d="M 0.796875 -1.21875 C 0.835938 -1.21875 0.875 -1.21875 0.90625 -1.21875 L 0.90625 -0.90625 C 0.875 -0.914062 0.84375 -0.921875 0.8125 -0.921875 C 0.707031 -0.921875 0.625 -0.894531 0.5625 -0.84375 C 0.507812 -0.789062 0.484375 -0.71875 0.484375 -0.625 L 0.5 -0.015625 L 0.171875 0 L 0.140625 -1.1875 L 0.390625 -1.203125 L 0.4375 -1 L 0.453125 -1 C 0.484375 -1.070312 0.53125 -1.125 0.59375 -1.15625 C 0.65625 -1.195312 0.722656 -1.21875 0.796875 -1.21875 Z M 0.796875 -1.21875 "/></g></g></g><g fill="#5e17eb" fill-opacity="1"><g transform="translate(7.621466, 3.058107)"><g/></g></g><g fill="#5e17eb" fill-opacity="1"><g transform="translate(8.186314, 3.044246)"><g><path d="M 1.015625 -0.03125 L 0.96875 -0.1875 L 0.953125 -0.171875 C 0.910156 -0.109375 0.859375 -0.0625 0.796875 -0.03125 C 0.734375 -0.0078125 0.660156 0 0.578125 0 C 0.441406 0 0.335938 -0.03125 0.265625 -0.09375 C 0.191406 -0.164062 0.148438 -0.269531 0.140625 -0.40625 L 0.125 -1.1875 L 0.453125 -1.203125 L 0.46875 -0.515625 C 0.46875 -0.421875 0.484375 -0.351562 0.515625 -0.3125 C 0.554688 -0.269531 0.609375 -0.25 0.671875 -0.25 C 0.765625 -0.25 0.828125 -0.28125 0.859375 -0.34375 C 0.898438 -0.40625 0.921875 -0.503906 0.921875 -0.640625 L 0.90625 -1.203125 L 1.21875 -1.21875 L 1.25 -0.03125 Z M 1.015625 -0.03125 "/></g></g></g><g fill="#5e17eb" fill-opacity="1"><g transform="translate(9.61542, 3.009176)"><g><path d="M 1.234375 -0.03125 L 0.90625 -0.015625 L 0.890625 -0.703125 C 0.890625 -0.796875 0.875 -0.863281 0.84375 -0.90625 C 0.820312 -0.945312 0.78125 -0.96875 0.71875 -0.96875 C 0.632812 -0.96875 0.570312 -0.9375 0.53125 -0.875 C 0.5 -0.8125 0.484375 -0.710938 0.484375 -0.578125 L 0.5 -0.015625 L 0.171875 0 L 0.140625 -1.1875 L 0.390625 -1.203125 L 0.421875 -1.046875 L 0.453125 -1.046875 C 0.484375 -1.097656 0.523438 -1.140625 0.578125 -1.171875 C 0.640625 -1.203125 0.710938 -1.21875 0.796875 -1.21875 C 0.972656 -1.226562 1.09375 -1.175781 1.15625 -1.0625 L 1.1875 -1.0625 C 1.21875 -1.113281 1.265625 -1.15625 1.328125 -1.1875 C 1.390625 -1.21875 1.457031 -1.234375 1.53125 -1.234375 C 1.664062 -1.242188 1.765625 -1.210938 1.828125 -1.140625 C 1.898438 -1.078125 1.941406 -0.96875 1.953125 -0.8125 L 1.96875 -0.046875 L 1.640625 -0.046875 L 1.625 -0.734375 C 1.625 -0.828125 1.609375 -0.890625 1.578125 -0.921875 C 1.554688 -0.960938 1.515625 -0.984375 1.453125 -0.984375 C 1.367188 -0.984375 1.304688 -0.953125 1.265625 -0.890625 C 1.234375 -0.835938 1.21875 -0.75 1.21875 -0.625 Z M 1.234375 -0.03125 "/></g></g></g><g fill="#5e17eb" fill-opacity="1"><g transform="translate(3.188458, 6.186054)"><g><path d="M 0.671875 -0.25 C 0.722656 -0.25 0.789062 -0.265625 0.875 -0.296875 L 0.875 -0.046875 C 0.789062 -0.015625 0.691406 0 0.578125 0 C 0.441406 0 0.34375 -0.0234375 0.28125 -0.078125 C 0.226562 -0.140625 0.195312 -0.238281 0.1875 -0.375 L 0.1875 -0.9375 L 0.03125 -0.9375 L 0.015625 -1.078125 L 0.203125 -1.1875 L 0.296875 -1.453125 L 0.5 -1.453125 L 0.5 -1.203125 L 0.828125 -1.203125 L 0.84375 -0.953125 L 0.515625 -0.953125 L 0.515625 -0.390625 C 0.523438 -0.335938 0.539062 -0.300781 0.5625 -0.28125 C 0.59375 -0.257812 0.628906 -0.25 0.671875 -0.25 Z M 0.671875 -0.25 "/></g></g></g><g fill="#5e17eb" fill-opacity="1"><g transform="translate(4.132348, 6.162891)"><g><path d="M 0.5 -0.015625 L 0.171875 0 L 0.140625 -1.1875 L 0.46875 -1.203125 Z M 0.125 -1.3125 L 0.125 -1.34375 C 0.238281 -1.5 0.3125 -1.609375 0.34375 -1.671875 L 0.71875 -1.671875 L 0.71875 -1.65625 C 0.675781 -1.625 0.613281 -1.570312 0.53125 -1.5 C 0.445312 -1.425781 0.378906 -1.367188 0.328125 -1.328125 Z M 0.125 -1.3125 "/></g></g></g><g fill="#5e17eb" fill-opacity="1"><g transform="translate(4.795938, 6.146606)"><g><path d="M 0.671875 -0.25 C 0.722656 -0.25 0.789062 -0.265625 0.875 -0.296875 L 0.875 -0.046875 C 0.789062 -0.015625 0.691406 0 0.578125 0 C 0.441406 0 0.34375 -0.0234375 0.28125 -0.078125 C 0.226562 -0.140625 0.195312 -0.238281 0.1875 -0.375 L 0.1875 -0.9375 L 0.03125 -0.9375 L 0.015625 -1.078125 L 0.203125 -1.1875 L 0.296875 -1.453125 L 0.5 -1.453125 L 0.5 -1.203125 L 0.828125 -1.203125 L 0.84375 -0.953125 L 0.515625 -0.953125 L 0.515625 -0.390625 C 0.523438 -0.335938 0.539062 -0.300781 0.5625 -0.28125 C 0.59375 -0.257812 0.628906 -0.25 0.671875 -0.25 Z M 0.671875 -0.25 "/></g></g></g><g fill="#5e17eb" fill-opacity="1"><g transform="translate(5.739828, 6.123443)"><g><path d="M 1.015625 -0.03125 L 0.96875 -0.1875 L 0.953125 -0.171875 C 0.910156 -0.109375 0.859375 -0.0625 0.796875 -0.03125 C 0.734375 -0.0078125 0.660156 0 0.578125 0 C 0.441406 0 0.335938 -0.03125 0.265625 -0.09375 C 0.191406 -0.164062 0.148438 -0.269531 0.140625 -0.40625 L 0.125 -1.1875 L 0.453125 -1.203125 L 0.46875 -0.515625 C 0.46875 -0.421875 0.484375 -0.351562 0.515625 -0.3125 C 0.554688 -0.269531 0.609375 -0.25 0.671875 -0.25 C 0.765625 -0.25 0.828125 -0.28125 0.859375 -0.34375 C 0.898438 -0.40625 0.921875 -0.503906 0.921875 -0.640625 L 0.90625 -1.203125 L 1.21875 -1.21875 L 1.25 -0.03125 Z M 1.015625 -0.03125 "/></g></g></g><g fill="#5e17eb" fill-opacity="1"><g transform="translate(7.168934, 6.088373)"><g><path d="M 0.5 -0.015625 L 0.171875 0 L 0.125 -1.65625 L 0.453125 -1.671875 Z M 0.5 -0.015625 "/></g></g></g><g fill="#5e17eb" fill-opacity="1"><g transform="translate(7.832523, 6.072089)"><g><path d="M 0.40625 -0.609375 C 0.40625 -0.492188 0.425781 -0.40625 0.46875 -0.34375 C 0.519531 -0.28125 0.585938 -0.25 0.671875 -0.25 C 0.753906 -0.25 0.8125 -0.28125 0.84375 -0.34375 C 0.882812 -0.40625 0.90625 -0.492188 0.90625 -0.609375 C 0.90625 -0.722656 0.882812 -0.8125 0.84375 -0.875 C 0.800781 -0.9375 0.738281 -0.96875 0.65625 -0.96875 C 0.570312 -0.96875 0.507812 -0.9375 0.46875 -0.875 C 0.425781 -0.8125 0.40625 -0.722656 0.40625 -0.609375 Z M 1.234375 -0.625 C 1.242188 -0.4375 1.195312 -0.285156 1.09375 -0.171875 C 0.988281 -0.0546875 0.847656 0 0.671875 0 C 0.554688 0 0.453125 -0.0195312 0.359375 -0.0625 C 0.273438 -0.101562 0.207031 -0.171875 0.15625 -0.265625 C 0.101562 -0.359375 0.078125 -0.46875 0.078125 -0.59375 C 0.078125 -0.789062 0.125 -0.941406 0.21875 -1.046875 C 0.320312 -1.160156 0.460938 -1.21875 0.640625 -1.21875 C 0.753906 -1.21875 0.851562 -1.195312 0.9375 -1.15625 C 1.03125 -1.113281 1.101562 -1.046875 1.15625 -0.953125 C 1.207031 -0.859375 1.234375 -0.75 1.234375 -0.625 Z M 1.234375 -0.625 "/></g></g></g></g></g><g clip-path="url(#c0774fbf3f)"><path fill="#5e17eb" d="M 163.136719 52.257812 C 190.160156 125.289062 247.742188 182.867188 320.777344 209.898438 C 247.742188 236.921875 190.167969 294.507812 163.136719 367.539062 C 136.105469 294.507812 78.527344 236.921875 5.492188 209.898438 C 78.527344 182.875 136.105469 125.289062 163.136719 52.257812 Z M 163.136719 52.257812 " fill-opacity="1" fill-rule="nonzero"/></g><g clip-path="url(#ecf29a1f0a)"><path fill="#5e17eb" d="M 293.546875 7.484375 C 298.15625 47.34375 329.601562 78.796875 369.460938 83.398438 C 329.601562 88.007812 298.148438 119.453125 293.546875 159.3125 C 288.9375 119.453125 257.492188 88 217.632812 83.398438 C 257.492188 78.796875 288.9375 47.34375 293.546875 7.484375 Z M 293.546875 7.484375 " fill-opacity="1" fill-rule="nonzero"/></g><path fill="#5e17eb" d="M 266.273438 272.179688 C 268.28125 289.550781 281.980469 303.253906 299.351562 305.257812 C 281.980469 307.265625 268.28125 320.96875 266.273438 338.335938 C 264.265625 320.96875 250.5625 307.265625 233.195312 305.257812 C 250.5625 303.253906 264.265625 289.550781 266.273438 272.179688 Z M 266.273438 272.179688 " fill-opacity="1" fill-rule="nonzero"/><g mask="url(#2a11519a9b)"><g transform="matrix(1, 0, 0, 1, 232, 272)"><g clip-path="url(#31debc0c79)"><g clip-path="url(#215e39db24)"><path fill="#ffffff" d="M 34.273438 0.179688 C 36.28125 17.550781 49.980469 31.253906 67.351562 33.257812 C 49.980469 35.265625 36.28125 48.96875 34.273438 66.335938 C 32.265625 48.96875 18.5625 35.265625 1.195312 33.257812 C 18.5625 31.253906 32.265625 17.550781 34.273438 0.179688 Z M 34.273438 0.179688 " fill-opacity="1" fill-rule="nonzero"/></g></g></g></g><g clip-path="url(#56ddd4dd5e)"><g mask="url(#4767fd3696)"><g transform="matrix(1, 0, 0, 1, 5, 51)"><g clip-path="url(#354c03f6ed)"><g clip-path="url(#13d85398e8)"><path fill="#ffffff" d="M 221.757812 99.339844 C 193.878906 72.058594 171.984375 38.703125 158.136719 1.265625 C 131.105469 74.289062 73.527344 131.875 0.492188 158.898438 C 23.417969 167.382812 44.816406 178.878906 64.230469 192.910156 C 100.222656 144.953125 156.421875 110.429688 221.757812 99.339844 Z M 221.757812 99.339844 " fill-opacity="1" fill-rule="nonzero"/></g></g></g></g></g><g clip-path="url(#df975f67bb)"><g mask="url(#2474260e63)"><g transform="matrix(1, 0, 0, 1, 217, 7)"><g clip-path="url(#80247a80fb)"><g clip-path="url(#6cd964a6d5)"><path fill="#ffffff" d="M 110.558594 59.683594 C 92.066406 45.808594 79.351562 24.703125 76.546875 0.484375 C 71.9375 40.34375 40.492188 71.796875 0.632812 76.398438 C 16.429688 78.222656 30.890625 84.277344 42.898438 93.386719 C 62.566406 77.789062 85.527344 66.148438 110.558594 59.683594 Z M 110.558594 59.683594 " fill-opacity="1" fill-rule="nonzero"/></g></g></g></g></g><path fill="#5e17eb" d="M 172.511719 168.195312 L 145.515625 241.039062 L 163.214844 241.039062 C 163.214844 241.039062 167.675781 229.007812 167.675781 229.007812 L 195.359375 229.007812 C 195.359375 229.007812 199.898438 241.039062 199.898438 241.039062 L 217.632812 241.039062 C 217.632812 241.039062 190.601562 168.195312 190.601562 168.195312 Z M 173.074219 214.335938 L 181.628906 191.734375 L 189.933594 214.335938 Z M 173.074219 214.335938 " fill-opacity="1" fill-rule="nonzero"/><path fill="#5e17eb" d="M 117.550781 168.195312 L 134.917969 168.195312 L 134.917969 241.039062 L 117.550781 241.039062 Z M 117.550781 168.195312 " fill-opacity="1" fill-rule="nonzero"/></svg>