<svg xmlns="http://www.w3.org/2000/svg" xmlns:xlink="http://www.w3.org/1999/xlink" width="500" zoomAndPan="magnify" viewBox="0 0 375 374.999991" height="500" preserveAspectRatio="xMidYMid meet" version="1.0"><defs><clipPath id="ac1f0e9a68"><path d="M 1.953125 1.953125 L 373.203125 1.953125 L 373.203125 373.203125 L 1.953125 373.203125 Z M 1.953125 1.953125 " clip-rule="nonzero"/></clipPath><clipPath id="b8901e798b"><path d="M 49 218 L 326 218 L 326 373.203125 L 49 373.203125 Z M 49 218 " clip-rule="nonzero"/></clipPath></defs><g clip-path="url(#ac1f0e9a68)"><path fill="#5e17eb" d="M 373.054688 187.503906 C 373.054688 234.972656 355.242188 278.265625 325.910156 311.078125 C 291.9375 349.117188 242.523438 373.050781 187.507812 373.050781 C 132.492188 373.050781 83.058594 349.117188 49.101562 311.078125 C 19.773438 278.265625 1.960938 234.972656 1.960938 187.503906 C 1.960938 85.035156 85.023438 1.957031 187.507812 1.957031 C 289.976562 1.957031 373.054688 85.035156 373.054688 187.503906 " fill-opacity="1" fill-rule="nonzero"/></g><path fill="#c1a1ff" d="M 187.507812 221.683594 C 221.136719 221.683594 251.765625 183.636719 251.765625 141.859375 C 251.765625 102.386719 244.132812 63.351562 187.507812 63.351562 C 130.875 63.351562 123.238281 102.386719 123.238281 141.859375 C 123.238281 183.636719 153.871094 221.683594 187.507812 221.683594 " fill-opacity="1" fill-rule="nonzero"/><g clip-path="url(#b8901e798b)"><path fill="#c1a1ff" d="M 325.910156 311.078125 C 291.9375 349.117188 242.523438 373.050781 187.507812 373.050781 C 132.492188 373.050781 83.058594 349.117188 49.101562 311.078125 C 48.515625 288.164062 63.777344 235.066406 141.613281 218.722656 C 154.929688 232.3125 171.316406 239.996094 187.507812 239.996094 C 203.695312 239.996094 220.070312 232.3125 233.382812 218.722656 C 311.238281 235.066406 326.484375 288.164062 325.910156 311.078125 " fill-opacity="1" fill-rule="nonzero"/></g></svg>