<svg xmlns="http://www.w3.org/2000/svg" xmlns:xlink="http://www.w3.org/1999/xlink" width="500" zoomAndPan="magnify" viewBox="0 0 375 374.999991" height="500" preserveAspectRatio="xMidYMid meet" version="1.0"><defs><clipPath id="744254a568"><path d="M 13.769531 14.421875 L 241 14.421875 L 241 360.921875 L 13.769531 360.921875 Z M 13.769531 14.421875 " clip-rule="nonzero"/></clipPath></defs><path fill="#5e17eb" d="M 354.277344 174.847656 L 286.835938 107.40625 C 286.421875 106.992188 285.988281 106.597656 285.535156 106.226562 C 285.082031 105.855469 284.613281 105.507812 284.125 105.183594 C 283.636719 104.855469 283.136719 104.554688 282.621094 104.28125 C 282.101562 104.003906 281.574219 103.753906 281.03125 103.53125 C 280.492188 103.304688 279.941406 103.109375 279.378906 102.9375 C 278.820312 102.769531 278.253906 102.625 277.679688 102.511719 C 277.105469 102.398438 276.523438 102.3125 275.941406 102.253906 C 275.359375 102.195312 274.773438 102.167969 274.1875 102.167969 C 273.605469 102.167969 273.019531 102.195312 272.4375 102.253906 C 271.851562 102.3125 271.273438 102.398438 270.699219 102.511719 C 270.125 102.625 269.558594 102.769531 268.996094 102.9375 C 268.4375 103.109375 267.886719 103.304688 267.34375 103.53125 C 266.804688 103.753906 266.273438 104.003906 265.757812 104.28125 C 265.242188 104.554688 264.742188 104.855469 264.253906 105.183594 C 263.765625 105.507812 263.296875 105.855469 262.84375 106.226562 C 262.390625 106.597656 261.957031 106.992188 261.542969 107.40625 C 261.128906 107.820312 260.738281 108.253906 260.363281 108.707031 C 259.992188 109.160156 259.644531 109.628906 259.320312 110.117188 C 258.992188 110.601562 258.691406 111.105469 258.417969 111.621094 C 258.140625 112.136719 257.890625 112.667969 257.667969 113.207031 C 257.441406 113.75 257.246094 114.300781 257.074219 114.859375 C 256.90625 115.421875 256.761719 115.988281 256.648438 116.5625 C 256.535156 117.136719 256.449219 117.714844 256.390625 118.300781 C 256.335938 118.882812 256.304688 119.464844 256.304688 120.050781 C 256.304688 120.636719 256.335938 121.222656 256.390625 121.804688 C 256.449219 122.386719 256.535156 122.964844 256.648438 123.539062 C 256.761719 124.113281 256.90625 124.683594 257.074219 125.242188 C 257.246094 125.804688 257.441406 126.355469 257.667969 126.894531 C 257.890625 127.4375 258.140625 127.964844 258.417969 128.480469 C 258.691406 129 258.992188 129.5 259.320312 129.988281 C 259.644531 130.472656 259.992188 130.945312 260.363281 131.398438 C 260.738281 131.847656 261.128906 132.28125 261.542969 132.695312 L 298.457031 169.609375 L 103.1875 169.609375 C 102.601562 169.609375 102.015625 169.640625 101.433594 169.695312 C 100.851562 169.753906 100.273438 169.839844 99.695312 169.953125 C 99.121094 170.070312 98.554688 170.210938 97.996094 170.382812 C 97.433594 170.550781 96.882812 170.75 96.34375 170.972656 C 95.800781 171.195312 95.273438 171.445312 94.753906 171.722656 C 94.238281 172 93.738281 172.300781 93.25 172.625 C 92.761719 172.949219 92.292969 173.296875 91.839844 173.671875 C 91.386719 174.042969 90.953125 174.433594 90.539062 174.847656 C 90.125 175.261719 89.734375 175.695312 89.363281 176.148438 C 88.992188 176.601562 88.640625 177.070312 88.316406 177.558594 C 87.992188 178.046875 87.691406 178.546875 87.414062 179.0625 C 87.136719 179.582031 86.886719 180.109375 86.664062 180.652344 C 86.441406 181.191406 86.242188 181.742188 86.074219 182.304688 C 85.902344 182.863281 85.761719 183.429688 85.644531 184.003906 C 85.53125 184.578125 85.445312 185.160156 85.390625 185.742188 C 85.332031 186.324219 85.300781 186.910156 85.300781 187.496094 C 85.300781 188.082031 85.332031 188.664062 85.390625 189.246094 C 85.445312 189.832031 85.53125 190.410156 85.644531 190.984375 C 85.761719 191.558594 85.902344 192.125 86.074219 192.6875 C 86.242188 193.246094 86.441406 193.796875 86.664062 194.339844 C 86.886719 194.878906 87.136719 195.40625 87.414062 195.925781 C 87.691406 196.441406 87.992188 196.941406 88.316406 197.429688 C 88.640625 197.917969 88.992188 198.386719 89.363281 198.839844 C 89.734375 199.292969 90.125 199.726562 90.539062 200.140625 C 90.953125 200.554688 91.386719 200.945312 91.839844 201.320312 C 92.292969 201.691406 92.761719 202.039062 93.25 202.363281 C 93.738281 202.6875 94.238281 202.988281 94.753906 203.265625 C 95.273438 203.542969 95.800781 203.792969 96.34375 204.015625 C 96.882812 204.242188 97.433594 204.4375 97.996094 204.609375 C 98.554688 204.777344 99.121094 204.921875 99.695312 205.035156 C 100.273438 205.148438 100.851562 205.234375 101.433594 205.292969 C 102.015625 205.347656 102.601562 205.378906 103.1875 205.378906 L 298.457031 205.378906 L 261.542969 242.292969 C 261.128906 242.707031 260.738281 243.140625 260.363281 243.59375 C 259.992188 244.042969 259.644531 244.515625 259.320312 245 C 258.992188 245.488281 258.691406 245.992188 258.417969 246.507812 C 258.140625 247.023438 257.890625 247.550781 257.667969 248.09375 C 257.441406 248.632812 257.246094 249.183594 257.074219 249.746094 C 256.90625 250.304688 256.761719 250.875 256.648438 251.449219 C 256.535156 252.023438 256.449219 252.601562 256.390625 253.183594 C 256.335938 253.765625 256.304688 254.351562 256.304688 254.9375 C 256.304688 255.523438 256.335938 256.105469 256.390625 256.691406 C 256.449219 257.273438 256.535156 257.851562 256.648438 258.425781 C 256.761719 259 256.90625 259.566406 257.074219 260.128906 C 257.246094 260.6875 257.441406 261.238281 257.667969 261.78125 C 257.890625 262.320312 258.140625 262.851562 258.417969 263.367188 C 258.695312 263.882812 258.996094 264.386719 259.320312 264.871094 C 259.644531 265.359375 259.992188 265.828125 260.363281 266.28125 C 260.738281 266.734375 261.128906 267.167969 261.542969 267.582031 C 261.957031 267.996094 262.390625 268.390625 262.84375 268.761719 C 263.296875 269.132812 263.765625 269.480469 264.253906 269.808594 C 264.742188 270.132812 265.242188 270.433594 265.757812 270.710938 C 266.277344 270.984375 266.804688 271.234375 267.347656 271.460938 C 267.886719 271.683594 268.4375 271.878906 269 272.050781 C 269.558594 272.222656 270.125 272.363281 270.699219 272.476562 C 271.273438 272.589844 271.855469 272.675781 272.4375 272.734375 C 273.019531 272.792969 273.605469 272.820312 274.191406 272.820312 C 274.773438 272.820312 275.359375 272.792969 275.941406 272.734375 C 276.523438 272.675781 277.105469 272.589844 277.679688 272.476562 C 278.253906 272.363281 278.820312 272.21875 279.382812 272.050781 C 279.941406 271.878906 280.492188 271.683594 281.035156 271.460938 C 281.574219 271.234375 282.101562 270.984375 282.621094 270.707031 C 283.136719 270.433594 283.636719 270.132812 284.125 269.804688 C 284.613281 269.480469 285.082031 269.132812 285.535156 268.761719 C 285.988281 268.390625 286.421875 267.996094 286.835938 267.582031 L 354.277344 200.140625 C 354.691406 199.726562 355.085938 199.292969 355.457031 198.839844 C 355.828125 198.386719 356.175781 197.917969 356.503906 197.429688 C 356.828125 196.941406 357.128906 196.441406 357.40625 195.925781 C 357.679688 195.40625 357.929688 194.878906 358.15625 194.335938 C 358.378906 193.796875 358.574219 193.246094 358.746094 192.683594 C 358.914062 192.125 359.058594 191.558594 359.171875 190.984375 C 359.285156 190.410156 359.371094 189.828125 359.429688 189.246094 C 359.488281 188.664062 359.515625 188.078125 359.515625 187.492188 C 359.515625 186.910156 359.488281 186.324219 359.429688 185.742188 C 359.371094 185.160156 359.285156 184.578125 359.171875 184.003906 C 359.058594 183.429688 358.914062 182.863281 358.746094 182.300781 C 358.574219 181.742188 358.378906 181.191406 358.15625 180.648438 C 357.929688 180.109375 357.679688 179.582031 357.40625 179.0625 C 357.128906 178.546875 356.828125 178.046875 356.503906 177.558594 C 356.175781 177.070312 355.828125 176.601562 355.457031 176.148438 C 355.085938 175.695312 354.691406 175.261719 354.277344 174.847656 Z M 354.277344 174.847656 " fill-opacity="1" fill-rule="nonzero"/><g clip-path="url(#744254a568)"><path fill="#5e17eb" d="M 222.410156 288.835938 C 221.824219 288.835938 221.238281 288.863281 220.65625 288.921875 C 220.074219 288.976562 219.496094 289.0625 218.921875 289.175781 C 218.347656 289.292969 217.777344 289.433594 217.21875 289.605469 C 216.65625 289.773438 216.105469 289.972656 215.566406 290.195312 C 215.023438 290.417969 214.496094 290.667969 213.980469 290.945312 C 213.460938 291.222656 212.960938 291.523438 212.472656 291.847656 C 211.988281 292.171875 211.515625 292.523438 211.0625 292.894531 C 210.609375 293.265625 210.179688 293.65625 209.761719 294.070312 C 209.347656 294.484375 208.957031 294.917969 208.585938 295.371094 C 208.214844 295.824219 207.863281 296.296875 207.539062 296.78125 C 207.214844 297.269531 206.914062 297.769531 206.636719 298.289062 C 206.359375 298.804688 206.109375 299.332031 205.886719 299.875 C 205.664062 300.414062 205.464844 300.964844 205.296875 301.527344 C 205.125 302.085938 204.984375 302.652344 204.871094 303.230469 C 204.753906 303.804688 204.667969 304.382812 204.613281 304.964844 C 204.554688 305.546875 204.527344 306.132812 204.527344 306.71875 L 204.527344 324.601562 L 49.535156 324.601562 L 49.535156 50.386719 L 204.527344 50.386719 L 204.527344 68.269531 C 204.527344 68.855469 204.554688 69.441406 204.613281 70.023438 C 204.667969 70.605469 204.753906 71.1875 204.871094 71.761719 C 204.984375 72.335938 205.125 72.902344 205.296875 73.460938 C 205.464844 74.023438 205.664062 74.574219 205.886719 75.113281 C 206.109375 75.65625 206.359375 76.183594 206.636719 76.703125 C 206.914062 77.21875 207.214844 77.71875 207.539062 78.207031 C 207.863281 78.695312 208.214844 79.164062 208.585938 79.617188 C 208.957031 80.070312 209.347656 80.503906 209.761719 80.917969 C 210.179688 81.332031 210.609375 81.722656 211.0625 82.09375 C 211.515625 82.46875 211.988281 82.816406 212.472656 83.140625 C 212.960938 83.464844 213.460938 83.765625 213.980469 84.042969 C 214.496094 84.320312 215.023438 84.570312 215.566406 84.792969 C 216.105469 85.015625 216.65625 85.214844 217.21875 85.382812 C 217.777344 85.554688 218.347656 85.695312 218.921875 85.8125 C 219.496094 85.925781 220.074219 86.011719 220.65625 86.070312 C 221.238281 86.125 221.824219 86.15625 222.410156 86.15625 C 222.996094 86.15625 223.578125 86.125 224.160156 86.070312 C 224.746094 86.011719 225.324219 85.925781 225.898438 85.8125 C 226.472656 85.695312 227.039062 85.554688 227.601562 85.382812 C 228.160156 85.214844 228.710938 85.015625 229.253906 84.792969 C 229.792969 84.570312 230.324219 84.320312 230.839844 84.042969 C 231.355469 83.765625 231.859375 83.464844 232.34375 83.140625 C 232.832031 82.816406 233.300781 82.46875 233.753906 82.09375 C 234.207031 81.722656 234.640625 81.332031 235.054688 80.917969 C 235.46875 80.503906 235.863281 80.070312 236.234375 79.617188 C 236.605469 79.164062 236.953125 78.695312 237.277344 78.207031 C 237.605469 77.71875 237.90625 77.21875 238.179688 76.703125 C 238.457031 76.183594 238.707031 75.65625 238.929688 75.113281 C 239.15625 74.574219 239.351562 74.023438 239.523438 73.460938 C 239.691406 72.902344 239.835938 72.335938 239.949219 71.761719 C 240.0625 71.1875 240.148438 70.605469 240.207031 70.023438 C 240.265625 69.441406 240.292969 68.855469 240.292969 68.269531 L 240.292969 44.425781 C 240.292969 43.449219 240.246094 42.476562 240.148438 41.503906 C 240.054688 40.535156 239.910156 39.570312 239.71875 38.613281 C 239.53125 37.65625 239.292969 36.707031 239.007812 35.773438 C 238.726562 34.839844 238.398438 33.921875 238.023438 33.019531 C 237.648438 32.117188 237.234375 31.238281 236.773438 30.375 C 236.3125 29.515625 235.8125 28.679688 235.269531 27.867188 C 234.726562 27.054688 234.144531 26.273438 233.527344 25.519531 C 232.90625 24.761719 232.253906 24.042969 231.5625 23.351562 C 230.871094 22.660156 230.148438 22.003906 229.394531 21.386719 C 228.640625 20.765625 227.859375 20.1875 227.046875 19.644531 C 226.234375 19.101562 225.398438 18.601562 224.539062 18.140625 C 223.675781 17.679688 222.796875 17.261719 221.894531 16.890625 C 220.992188 16.515625 220.074219 16.1875 219.140625 15.902344 C 218.203125 15.621094 217.257812 15.382812 216.300781 15.195312 C 215.34375 15.003906 214.378906 14.859375 213.410156 14.765625 C 212.4375 14.667969 211.464844 14.621094 210.488281 14.621094 L 43.574219 14.621094 C 42.597656 14.621094 41.625 14.667969 40.652344 14.765625 C 39.679688 14.859375 38.71875 15.003906 37.757812 15.195312 C 36.800781 15.382812 35.855469 15.621094 34.921875 15.902344 C 33.988281 16.1875 33.070312 16.515625 32.167969 16.890625 C 31.265625 17.261719 30.386719 17.679688 29.523438 18.140625 C 28.664062 18.601562 27.828125 19.101562 27.015625 19.644531 C 26.203125 20.1875 25.421875 20.765625 24.664062 21.386719 C 23.910156 22.003906 23.1875 22.660156 22.5 23.351562 C 21.808594 24.042969 21.152344 24.761719 20.535156 25.519531 C 19.914062 26.273438 19.335938 27.054688 18.792969 27.867188 C 18.25 28.679688 17.75 29.515625 17.289062 30.375 C 16.828125 31.238281 16.410156 32.117188 16.039062 33.019531 C 15.664062 33.921875 15.335938 34.839844 15.050781 35.773438 C 14.769531 36.707031 14.53125 37.65625 14.339844 38.613281 C 14.152344 39.570312 14.007812 40.535156 13.914062 41.503906 C 13.816406 42.476562 13.769531 43.449219 13.769531 44.425781 L 13.769531 330.5625 C 13.769531 331.539062 13.816406 332.511719 13.914062 333.484375 C 14.007812 334.457031 14.152344 335.417969 14.339844 336.375 C 14.53125 337.335938 14.769531 338.28125 15.050781 339.214844 C 15.335938 340.148438 15.664062 341.066406 16.039062 341.96875 C 16.410156 342.871094 16.828125 343.75 17.289062 344.613281 C 17.75 345.472656 18.25 346.308594 18.792969 347.121094 C 19.335938 347.933594 19.914062 348.714844 20.535156 349.472656 C 21.152344 350.226562 21.808594 350.949219 22.5 351.636719 C 23.1875 352.328125 23.910156 352.984375 24.664062 353.601562 C 25.421875 354.222656 26.203125 354.800781 27.015625 355.34375 C 27.828125 355.886719 28.664062 356.386719 29.523438 356.847656 C 30.386719 357.308594 31.265625 357.726562 32.167969 358.097656 C 33.070312 358.472656 33.988281 358.800781 34.921875 359.085938 C 35.855469 359.367188 36.800781 359.605469 37.757812 359.796875 C 38.71875 359.984375 39.679688 360.128906 40.652344 360.222656 C 41.625 360.320312 42.597656 360.367188 43.574219 360.367188 L 210.488281 360.367188 C 211.464844 360.367188 212.4375 360.320312 213.410156 360.222656 C 214.378906 360.128906 215.34375 359.984375 216.300781 359.796875 C 217.257812 359.605469 218.203125 359.367188 219.140625 359.085938 C 220.074219 358.800781 220.992188 358.472656 221.894531 358.097656 C 222.796875 357.726562 223.675781 357.308594 224.539062 356.847656 C 225.398438 356.386719 226.234375 355.886719 227.046875 355.34375 C 227.859375 354.800781 228.640625 354.222656 229.394531 353.601562 C 230.148438 352.984375 230.871094 352.328125 231.5625 351.636719 C 232.253906 350.949219 232.90625 350.226562 233.527344 349.472656 C 234.144531 348.714844 234.726562 347.933594 235.269531 347.121094 C 235.8125 346.308594 236.3125 345.472656 236.773438 344.613281 C 237.234375 343.75 237.648438 342.871094 238.023438 341.96875 C 238.398438 341.066406 238.726562 340.148438 239.007812 339.214844 C 239.292969 338.28125 239.53125 337.335938 239.71875 336.378906 C 239.910156 335.417969 240.054688 334.457031 240.148438 333.484375 C 240.246094 332.511719 240.292969 331.539062 240.292969 330.5625 L 240.292969 306.71875 C 240.292969 306.132812 240.265625 305.546875 240.207031 304.964844 C 240.148438 304.382812 240.0625 303.804688 239.949219 303.230469 C 239.835938 302.652344 239.691406 302.085938 239.523438 301.527344 C 239.351562 300.964844 239.15625 300.414062 238.929688 299.875 C 238.707031 299.332031 238.457031 298.804688 238.179688 298.289062 C 237.90625 297.769531 237.605469 297.269531 237.277344 296.78125 C 236.953125 296.296875 236.605469 295.824219 236.234375 295.371094 C 235.863281 294.917969 235.46875 294.484375 235.054688 294.070312 C 234.640625 293.65625 234.207031 293.265625 233.753906 292.894531 C 233.300781 292.523438 232.832031 292.171875 232.34375 291.847656 C 231.859375 291.523438 231.355469 291.222656 230.839844 290.945312 C 230.324219 290.667969 229.792969 290.417969 229.253906 290.195312 C 228.710938 289.972656 228.160156 289.773438 227.601562 289.605469 C 227.039062 289.433594 226.472656 289.292969 225.898438 289.175781 C 225.324219 289.0625 224.746094 288.976562 224.160156 288.921875 C 223.578125 288.863281 222.996094 288.835938 222.410156 288.835938 Z M 222.410156 288.835938 " fill-opacity="1" fill-rule="nonzero"/></g></svg>