<svg xmlns="http://www.w3.org/2000/svg" xmlns:xlink="http://www.w3.org/1999/xlink" width="500" zoomAndPan="magnify" viewBox="0 0 375 374.999991" height="500" preserveAspectRatio="xMidYMid meet" version="1.0"><defs><clipPath id="42c0a5821f"><path d="M 34 17 L 340 17 L 340 358.964844 L 34 358.964844 Z M 34 17 " clip-rule="nonzero"/></clipPath></defs><g clip-path="url(#42c0a5821f)"><path fill="#240d52" d="M 336.175781 238.734375 C 333.214844 233.792969 321.089844 219.105469 289.316406 237.609375 L 234.144531 269.746094 C 231.867188 271.070312 229.5625 272.066406 227.179688 272.746094 C 227.953125 271.28125 228.578125 269.679688 229.042969 267.949219 C 231.945312 257.109375 225.511719 245.800781 214.398438 242.195312 C 214.164062 242.121094 213.921875 242.058594 213.679688 242.015625 C 197.871094 239.164062 182.246094 233.515625 169.691406 228.976562 C 165.320312 227.394531 161.1875 225.902344 157.667969 224.761719 C 143.316406 220.105469 130.398438 225.835938 119.65625 232.058594 L 79.132812 255.519531 L 75.566406 249.210938 C 73.777344 246.050781 70.859375 243.773438 67.34375 242.800781 C 63.832031 241.828125 60.15625 242.277344 56.996094 244.0625 L 41.515625 252.824219 C 34.980469 256.527344 32.671875 264.855469 36.371094 271.390625 L 81.882812 351.8125 C 83.671875 354.96875 86.589844 357.246094 90.105469 358.21875 C 91.320312 358.558594 92.554688 358.722656 93.777344 358.722656 C 96.097656 358.722656 98.386719 358.125 100.453125 356.957031 L 115.933594 348.195312 C 122.472656 344.496094 124.78125 336.167969 121.078125 329.628906 L 116.683594 321.859375 L 125.304688 316.882812 L 195.730469 335.75 C 199.683594 336.8125 203.613281 337.339844 207.480469 337.335938 C 215.304688 337.335938 222.863281 335.183594 229.769531 330.929688 L 329.898438 269.273438 C 339.292969 263.492188 342.285156 248.933594 336.175781 238.734375 Z M 110.515625 338.621094 L 95.03125 347.382812 C 94.21875 347.84375 93.4375 347.726562 93.042969 347.621094 C 92.648438 347.511719 91.917969 347.203125 91.457031 346.394531 L 45.945312 265.972656 C 45.242188 264.738281 45.699219 263.097656 46.933594 262.398438 L 62.414062 253.636719 C 62.867188 253.382812 63.3125 253.304688 63.683594 253.304688 C 63.980469 253.304688 64.230469 253.355469 64.40625 253.402344 C 64.800781 253.511719 65.53125 253.816406 65.992188 254.628906 L 111.503906 335.046875 C 112.207031 336.285156 111.75 337.921875 110.515625 338.621094 Z M 204.582031 283.097656 L 211.445312 284.214844 C 221.851562 285.878906 231.085938 284.253906 239.679688 279.25 L 294.855469 247.113281 C 310.414062 238.050781 322.332031 237.03125 326.738281 244.386719 C 329.753906 249.421875 328.4375 257.253906 324.128906 259.90625 L 224 321.5625 C 216.207031 326.359375 207.65625 327.558594 198.574219 325.125 L 125.949219 305.664062 C 124.539062 305.289062 123.039062 305.488281 121.773438 306.214844 L 111.261719 312.285156 L 84.554688 265.089844 L 125.167969 241.574219 C 134.25 236.316406 144.058594 231.910156 154.273438 235.222656 C 157.621094 236.308594 161.480469 237.703125 165.953125 239.320312 C 178.792969 243.964844 194.746094 249.730469 211.324219 252.765625 C 216.757812 254.6875 219.800781 259.933594 218.414062 265.101562 C 216.589844 271.90625 210.882812 272.746094 206.332031 272.230469 C 198.242188 270.5625 190.542969 268.367188 182.394531 266.039062 C 178.519531 264.933594 174.507812 263.789062 170.386719 262.683594 C 167.453125 261.898438 164.4375 263.636719 163.648438 266.570312 C 162.863281 269.507812 164.605469 272.523438 167.539062 273.308594 C 171.574219 274.390625 175.539062 275.523438 179.375 276.617188 C 187.808594 279.023438 195.773438 281.300781 204.363281 283.054688 M 66.609375 268.644531 C 67.050781 271.664062 64.960938 274.46875 61.941406 274.910156 C 58.921875 275.351562 56.113281 273.261719 55.671875 270.242188 C 55.230469 267.222656 57.320312 264.414062 60.34375 263.972656 C 63.363281 263.53125 66.167969 265.625 66.609375 268.644531 Z M 147.738281 103.621094 C 150.28125 108.582031 151.558594 111.074219 151.925781 113.144531 C 152.289062 115.214844 151.941406 117.992188 151.25 123.523438 C 151.074219 124.917969 150.878906 126.46875 150.671875 128.210938 C 149.527344 137.792969 154.71875 146.78125 163.589844 150.582031 C 165.203125 151.273438 166.640625 151.878906 167.933594 152.425781 C 168.167969 152.523438 168.394531 152.617188 168.617188 152.714844 L 148.175781 196.621094 C 147.308594 198.480469 147.546875 200.664062 148.796875 202.289062 C 150.042969 203.917969 152.085938 204.714844 154.105469 204.363281 L 176.578125 200.4375 L 188.039062 220.160156 C 189.027344 221.859375 190.839844 222.894531 192.792969 222.894531 C 192.875 222.894531 192.960938 222.894531 193.042969 222.890625 C 195.089844 222.796875 196.914062 221.574219 197.78125 219.71875 L 218.074219 176.128906 L 217.675781 175.941406 C 221.148438 174.890625 223.199219 174.363281 224.878906 174.363281 C 226.984375 174.363281 229.65625 175.1875 234.984375 176.832031 C 235.542969 177.003906 236.136719 177.1875 236.75 177.375 L 251.398438 211.378906 C 252.207031 213.257812 253.996094 214.535156 256.039062 214.6875 C 256.175781 214.695312 256.3125 214.703125 256.449219 214.703125 C 258.339844 214.703125 260.113281 213.726562 261.121094 212.101562 L 273.148438 192.71875 L 295.496094 197.296875 C 297.503906 197.707031 299.574219 196.96875 300.867188 195.378906 C 302.160156 193.789062 302.460938 191.613281 301.652344 189.734375 L 285.003906 151.082031 C 285.382812 150.921875 285.773438 150.753906 286.171875 150.582031 C 295.042969 146.785156 300.234375 137.792969 299.089844 128.210938 C 298.882812 126.46875 298.6875 124.917969 298.511719 123.527344 C 297.816406 117.992188 297.46875 115.214844 297.835938 113.144531 C 298.199219 111.074219 299.476562 108.585938 302.023438 103.621094 C 302.660156 102.375 303.375 100.984375 304.167969 99.417969 C 308.519531 90.804688 306.71875 80.582031 299.679688 73.976562 C 298.402344 72.777344 297.257812 71.714844 296.226562 70.757812 C 292.140625 66.964844 290.089844 65.0625 289.035156 63.242188 C 287.984375 61.421875 287.363281 58.691406 286.125 53.257812 C 285.8125 51.886719 285.464844 50.363281 285.0625 48.65625 C 282.863281 39.257812 274.910156 32.585938 265.273438 32.050781 C 263.519531 31.953125 261.960938 31.875 260.558594 31.804688 C 254.988281 31.527344 252.195312 31.390625 250.21875 30.667969 C 248.242188 29.949219 246.011719 28.261719 241.566406 24.894531 C 240.449219 24.046875 239.203125 23.101562 237.800781 22.050781 C 230.074219 16.265625 219.691406 16.265625 211.964844 22.050781 C 210.5625 23.101562 209.316406 24.046875 208.195312 24.894531 C 203.753906 28.261719 201.523438 29.949219 199.546875 30.667969 C 197.570312 31.390625 194.773438 31.527344 189.203125 31.804688 C 187.804688 31.875 186.242188 31.953125 184.492188 32.050781 C 174.855469 32.585938 166.902344 39.261719 164.703125 48.65625 C 164.300781 50.363281 163.953125 51.886719 163.640625 53.253906 C 162.402344 58.691406 161.777344 61.421875 160.726562 63.242188 C 159.675781 65.0625 157.625 66.964844 153.535156 70.757812 C 152.507812 71.714844 151.363281 72.777344 150.082031 73.976562 C 143.046875 80.582031 141.242188 90.804688 145.597656 99.417969 C 146.386719 100.980469 147.097656 102.371094 147.738281 103.621094 Z M 192.253906 205.519531 L 184.164062 191.59375 C 183.007812 189.601562 180.734375 188.542969 178.460938 188.9375 L 162.59375 191.710938 L 178.277344 158.027344 C 179.578125 159.472656 181.023438 161.714844 183.414062 165.414062 C 184.175781 166.59375 185.023438 167.90625 185.984375 169.375 C 190.066406 175.617188 196.816406 179.152344 203.933594 179.152344 C 204.136719 179.152344 204.339844 179.136719 204.542969 179.132812 Z M 271.601562 181.171875 C 269.34375 180.710938 267.039062 181.703125 265.824219 183.660156 L 257.332031 197.347656 L 249.363281 178.84375 C 255.132812 177.878906 260.378906 174.570312 263.773438 169.375 C 264.734375 167.90625 265.582031 166.597656 266.34375 165.417969 C 269.367188 160.730469 270.886719 158.378906 272.496094 157.027344 C 273.125 156.5 273.90625 156.011719 274.925781 155.488281 L 287.378906 184.40625 Z M 157.609375 81.996094 C 158.871094 80.8125 160 79.761719 161.015625 78.820312 C 170.777344 69.765625 171.402344 68.683594 174.363281 55.699219 C 174.671875 54.351562 175.015625 52.847656 175.410156 51.164062 C 176.503906 46.492188 180.308594 43.300781 185.101562 43.03125 C 186.828125 42.9375 188.367188 42.859375 189.75 42.789062 C 203.050781 42.128906 204.222656 41.703125 214.839844 33.660156 C 215.941406 32.824219 217.171875 31.890625 218.558594 30.855469 C 220.476562 29.417969 222.679688 28.699219 224.882812 28.699219 C 227.082031 28.699219 229.285156 29.417969 231.207031 30.855469 C 232.59375 31.890625 233.820312 32.824219 234.921875 33.660156 C 245.539062 41.699219 246.710938 42.128906 260.011719 42.789062 C 261.394531 42.859375 262.933594 42.933594 264.660156 43.03125 C 269.453125 43.296875 273.257812 46.488281 274.351562 51.164062 C 274.746094 52.847656 275.089844 54.351562 275.398438 55.699219 C 278.359375 68.683594 278.984375 69.765625 288.746094 78.820312 C 289.761719 79.761719 290.890625 80.8125 292.152344 81.996094 C 295.652344 85.28125 296.515625 90.171875 294.347656 94.453125 C 293.570312 96 292.863281 97.371094 292.234375 98.601562 C 286.15625 110.453125 285.941406 111.679688 287.597656 124.894531 C 287.769531 126.265625 287.960938 127.796875 288.167969 129.515625 C 288.738281 134.28125 286.253906 138.578125 281.84375 140.46875 C 280.25 141.152344 278.832031 141.75 277.554688 142.289062 C 265.28125 147.457031 264.328125 148.261719 257.101562 159.449219 C 256.351562 160.609375 255.515625 161.90625 254.570312 163.355469 C 251.941406 167.371094 247.277344 169.066406 242.683594 167.679688 C 241.023438 167.179688 239.550781 166.726562 238.230469 166.316406 C 225.503906 162.390625 224.257812 162.390625 211.53125 166.316406 C 210.207031 166.726562 208.734375 167.179688 207.078125 167.679688 C 202.484375 169.070312 197.820312 167.371094 195.191406 163.355469 C 194.246094 161.90625 193.40625 160.609375 192.65625 159.449219 C 185.433594 148.261719 184.476562 147.457031 172.207031 142.289062 C 170.929688 141.75 169.511719 141.152344 167.917969 140.46875 C 163.507812 138.578125 161.023438 134.28125 161.59375 129.515625 C 161.800781 127.796875 161.992188 126.265625 162.164062 124.894531 C 163.820312 111.679688 163.605469 110.449219 157.527344 98.601562 C 156.894531 97.367188 156.191406 95.996094 155.410156 94.453125 C 153.246094 90.171875 154.109375 85.28125 157.609375 81.996094 Z M 224.878906 148.863281 C 252.6875 148.863281 275.3125 126.238281 275.3125 98.429688 C 275.3125 70.621094 252.6875 47.996094 224.878906 47.996094 C 197.070312 47.996094 174.445312 70.621094 174.445312 98.429688 C 174.445312 126.238281 197.070312 148.863281 224.878906 148.863281 Z M 224.878906 58.996094 C 246.621094 58.996094 264.3125 76.683594 264.3125 98.429688 C 264.3125 120.171875 246.625 137.863281 224.878906 137.863281 C 203.136719 137.863281 185.445312 120.171875 185.445312 98.429688 C 185.445312 76.683594 203.136719 58.996094 224.878906 58.996094 Z M 210.878906 117.917969 L 196.722656 103.765625 C 194.574219 101.617188 194.574219 98.132812 196.722656 95.984375 C 198.871094 93.835938 202.355469 93.839844 204.5 95.984375 L 214.949219 106.4375 L 245.449219 78.757812 C 247.699219 76.714844 251.179688 76.882812 253.222656 79.132812 C 255.261719 81.382812 255.09375 84.863281 252.84375 86.902344 L 218.464844 118.105469 C 217.410156 119.058594 216.089844 119.53125 214.769531 119.53125 C 213.355469 119.53125 211.949219 118.992188 210.878906 117.917969 Z M 210.878906 117.917969 " fill-opacity="1" fill-rule="nonzero"/></g></svg>