<svg xmlns="http://www.w3.org/2000/svg" xmlns:xlink="http://www.w3.org/1999/xlink" width="500" zoomAndPan="magnify" viewBox="0 0 375 374.999991" height="500" preserveAspectRatio="xMidYMid meet" version="1.0"><defs><clipPath id="167638e85d"><path d="M 8.667969 7.6875 L 366.417969 7.6875 L 366.417969 367.6875 L 8.667969 367.6875 Z M 8.667969 7.6875 " clip-rule="nonzero"/></clipPath></defs><g clip-path="url(#167638e85d)"><path fill="#5e17eb" d="M 314.175781 60.089844 C 280.5625 26.4375 235.859375 7.871094 188.222656 7.871094 C 90.078125 7.871094 10.195312 87.734375 10.160156 185.917969 C 10.160156 217.296875 18.351562 247.945312 33.933594 274.933594 L 8.667969 367.199219 L 103.066406 342.429688 C 129.078125 356.625 158.355469 364.089844 188.152344 364.105469 L 188.222656 364.105469 C 286.351562 364.105469 366.253906 284.222656 366.269531 186.058594 C 366.269531 138.480469 347.792969 93.757812 314.160156 60.089844 Z M 188.222656 334.042969 L 188.171875 334.042969 C 161.625 334.042969 135.5625 326.902344 112.835938 313.417969 L 107.4375 310.199219 L 51.414062 324.894531 L 66.359375 270.277344 L 62.839844 264.679688 C 48.023438 241.121094 40.203125 213.882812 40.222656 185.917969 C 40.257812 104.332031 106.65625 37.933594 188.277344 37.933594 C 227.808594 37.933594 264.960938 53.355469 292.910156 81.339844 C 320.855469 109.304688 336.226562 146.492188 336.207031 186.042969 C 336.171875 267.648438 269.777344 334.042969 188.207031 334.042969 Z M 269.402344 223.210938 C 264.960938 220.992188 243.089844 210.222656 239.003906 208.75 C 234.917969 207.257812 231.96875 206.527344 229 210.96875 C 226.03125 215.429688 217.503906 225.449219 214.910156 228.417969 C 212.316406 231.382812 209.722656 231.757812 205.261719 229.519531 C 200.820312 227.296875 186.484375 222.589844 169.480469 207.433594 C 156.261719 195.636719 147.324219 181.066406 144.730469 176.609375 C 142.136719 172.148438 144.464844 169.75 146.683594 167.527344 C 148.675781 165.539062 151.125 162.324219 153.363281 159.730469 C 155.585938 157.136719 156.332031 155.269531 157.804688 152.300781 C 159.300781 149.335938 158.550781 146.742188 157.433594 144.503906 C 156.3125 142.28125 147.429688 120.375 143.71875 111.472656 C 140.109375 102.800781 136.433594 103.976562 133.714844 103.832031 C 131.121094 103.707031 128.152344 103.671875 125.1875 103.671875 C 122.21875 103.671875 117.402344 104.773438 113.316406 109.234375 C 109.230469 113.695312 97.753906 124.460938 97.753906 146.351562 C 97.753906 168.238281 113.691406 189.398438 115.929688 192.386719 C 118.148438 195.351562 147.304688 240.285156 191.9375 259.5625 C 202.542969 264.148438 210.84375 266.882812 217.308594 268.945312 C 227.96875 272.339844 237.671875 271.859375 245.328125 270.703125 C 253.875 269.425781 271.640625 259.9375 275.355469 249.542969 C 279.070312 239.148438 279.070312 230.246094 277.949219 228.382812 C 276.828125 226.515625 273.863281 225.414062 269.421875 223.175781 Z M 269.402344 223.210938 " fill-opacity="1" fill-rule="evenodd"/></g></svg>